<?xml version="1.0" standalone="no"?>
<!DOCTYPE svg PUBLIC "-//W3C//DTD SVG 20010904//EN"
 "http://www.w3.org/TR/2001/REC-SVG-20010904/DTD/svg10.dtd">
<svg version="1.0" xmlns="http://www.w3.org/2000/svg"
 width="200.000000pt" height="200.000000pt" viewBox="0 0 200.000000 200.000000"
 preserveAspectRatio="xMidYMid meet">
<metadata>
Created by potrace 1.11, written by Peter Selinger 2001-2013
</metadata>
<g transform="translate(0.000000,200.000000) scale(0.100000,-0.100000)"
fill="#000000" stroke="none">
<path d="M2 998 l3 -1003 5 995 5 995 995 5 995 5 -1002 3 -1003 2 2 -1002z"/>
<path d="M30 985 l0 -985 985 0 985 0 0 985 0 985 -985 0 -985 0 0 -985z
m1800 -10 l0 -815 -810 0 -810 0 0 815 0 815 810 0 810 0 0 -815z"/>
<path d="M300 1685 c0 -8 9 -15 19 -15 11 0 27 -7 35 -16 14 -13 16 -57 16
-328 0 -330 -1 -336 -47 -336 -14 0 -23 -6 -23 -16 0 -14 26 -15 223 -12 221
3 222 3 269 30 61 36 112 98 140 167 32 81 31 251 -1 334 -44 113 -111 172
-224 197 -26 5 -129 10 -227 10 -153 0 -180 -2 -180 -15z m355 -50 c77 -20
136 -77 159 -155 21 -71 22 -252 1 -311 -37 -104 -101 -146 -240 -156 l-85 -6
0 322 0 321 53 0 c29 0 80 -7 112 -15z"/>
<path d="M1285 1680 c-131 -51 -205 -174 -205 -342 0 -148 50 -268 135 -324
70 -46 114 -53 333 -54 164 0 192 2 192 15 0 9 -9 15 -23 15 -46 0 -47 6 -47
340 0 334 1 340 47 340 14 0 23 6 23 15 0 13 -29 15 -202 14 -176 0 -210 -3
-253 -19z m265 -355 l0 -315 -71 0 c-96 0 -145 16 -195 65 -58 55 -78 126 -78
265 2 218 72 297 267 299 l77 1 0 -315z"/>
<path d="M876 654 c-142 -342 -155 -366 -213 -380 -55 -14 -14 -24 102 -24 77
0 125 4 125 10 0 6 -13 10 -28 10 -30 0 -52 16 -52 38 0 16 168 423 180 436 4
4 11 -2 15 -14 4 -13 43 -99 87 -193 89 -190 101 -233 73 -253 -11 -8 -29 -14
-42 -14 -13 0 -23 -4 -23 -10 0 -6 60 -10 160 -10 88 0 160 4 160 8 0 4 -15
13 -32 20 -18 6 -43 26 -55 44 -12 18 -85 172 -163 343 -79 171 -145 313 -149
317 -3 3 -68 -144 -145 -328z"/>
<path d="M945 455 c-47 -46 -21 -105 45 -105 41 0 70 26 70 63 0 24 -44 67
-70 67 -11 0 -32 -11 -45 -25z"/>
</g>
</svg>
